<svg width="26" height="26" viewBox="0 0 26 26" fill="none" xmlns="http://www.w3.org/2000/svg">
<path d="M3.75909 17.1492L2.9393 14.0897C2.87321 13.8431 3.00359 13.5862 3.24171 13.494L5.43644 12.6442C5.78834 12.5079 5.86823 12.0459 5.58251 11.7994L3.6794 10.1574C3.49764 10.0006 3.45298 9.73674 3.57301 9.52884L5.27722 6.57705C5.39875 6.36656 5.65404 6.27396 5.88226 6.35758L8.21478 7.21227C8.56984 7.34238 8.93524 7.04647 8.88178 6.67212L8.54264 4.29705C8.50688 4.0466 8.66383 3.80889 8.90821 3.74341L11.9317 2.93328C12.169 2.86968 12.4174 2.98799 12.5176 3.21236L13.6305 5.70443C13.791 6.06378 14.2845 6.10545 14.503 5.77808L15.8525 3.75567C15.9988 3.53644 16.2902 3.46841 16.5184 3.6002L19.3762 5.25014C19.6065 5.38306 19.6924 5.6729 19.5719 5.90985L18.4274 8.1597C18.2456 8.51716 18.5375 8.93248 18.9354 8.88249L21.7092 8.53406C21.957 8.50293 22.1898 8.65948 22.2544 8.90075L23.0617 11.9134C23.1274 12.1585 22.999 12.414 22.763 12.5076L19.87 13.655C19.4985 13.8023 19.4414 14.3044 19.7705 14.5313L22.3473 16.3085C22.5764 16.4664 22.6324 16.7809 22.4721 17.0083L20.7334 19.4735C20.6031 19.6583 20.3651 19.7326 20.1528 19.6549L17.7852 18.7876C17.4301 18.6576 17.0648 18.9535 17.1182 19.3278L17.4574 21.7025C17.4931 21.953 17.3362 22.1907 17.0918 22.2561L14.1029 23.057C13.8508 23.1246 13.5892 22.9869 13.5021 22.7409L12.649 20.3305C12.5171 19.9578 12.0251 19.8784 11.7826 20.1909L10.1547 22.2891C10.0015 22.4865 9.7261 22.5405 9.50968 22.4156L6.59806 20.7346C6.37855 20.6078 6.2886 20.3369 6.38873 20.104L7.20005 18.2173C7.34196 17.8873 7.09994 17.5198 6.74072 17.5198L4.24206 17.5198C4.01575 17.5198 3.81766 17.3678 3.75909 17.1492Z" stroke="black"/>
<circle cx="13" cy="13" r="4" stroke="black"/>
</svg>
